# xmcd
#
# Track frame offsets: 
#        150
#        14776
#        31984
#        45540
#        63748
#        81734
#        98316
#        112815
#        130161
#        146067
#        163336
#        183334
#        198822
#        214976
#        230341
#        249136
#        266418
#        286628
#        304336
#        325105
#        339458
#
# Disc length: 4756 seconds
#
# Revision: 0
# Processed by: cddbd v1.5.2PL0 Copyright (c) Steve Scherf et al.
# Submitted via: ExactAudioCopyFreeDBPlugin 1.0
#
DISCID=2a129215
DTITLE=Various Artist -  Pop Giganten: Black Hits
DYEAR=2018
DGENRE=Blues
TTITLE0=50 Cent: In Da Club
TTITLE1=Nelly: Hot In Herre
TTITLE2=Timbaland: The Way I Are
TTITLE3=Nelly Furtado: Promiscuous
TTITLE4=Destiny's Child: Lose My Breath
TTITLE5=Usher: DJ Got Us Fallin' In Love
TTITLE6=Chris Brown: Run It!
TTITLE7=The Pussycat Dolls: Buttons
TTITLE8=Sean Paul: Get Busy
TTITLE9=Eve: Let Me Blow Ya Mind
TTITLE10=Mary J. Blige: Family Affair
TTITLE11=Kelis: Trick Me
TTITLE12=Fifth Harmony: Work From Home
TTITLE13=Justin Bieber: What Do You Mean?
TTITLE14=The Black Eyed Peas: My Humps
TTITLE15=Robin Thicke: Blurred Lines
TTITLE16=Mark Ronson: Uptown Funk
TTITLE17=The Sugarhill Gang: Rapper's Delight
TTITLE18=Montell Jordan: This Is How We Do It
TTITLE19=Grandmaster Flash and The Furious Five: The Message
TTITLE20=The Notorious B. I.G.: Hypnotize
EXTD=
EXTT0=
EXTT1=
EXTT2=
EXTT3=
EXTT4=
EXTT5=
EXTT6=
EXTT7=
EXTT8=
EXTT9=
EXTT10=
EXTT11=
EXTT12=
EXTT13=
EXTT14=
EXTT15=
EXTT16=
EXTT17=
EXTT18=
EXTT19=
EXTT20=
PLAYORDER=
